<svg xmlns="http://www.w3.org/2000/svg" width="195" height="60" viewBox="0 0 195 60"><defs><style>.a{fill:#d2d2d1;}</style></defs><g transform="translate(-77.562 -759.645)"><path class="a" d="M145.172,811.942a.67.67,0,0,0-1.337.083A9.115,9.115,0,0,1,142.148,817a.671.671,0,0,0,.192.928.663.663,0,0,0,.367.111.67.67,0,0,0,.561-.3A10.227,10.227,0,0,0,145.172,811.942Z" transform="translate(-0.547 -0.539)"/><path class="a" d="M187.787,801.8a1.724,1.724,0,1,0-1.724-1.723A1.725,1.725,0,0,0,187.787,801.8Zm0-2.107a.383.383,0,1,1-.384.384A.384.384,0,0,1,187.787,799.7Z" transform="translate(-0.923 -0.365)"/><path class="a" d="M199.3,801.8a1.724,1.724,0,1,0-1.724-1.723A1.725,1.725,0,0,0,199.3,801.8Zm0-2.107a.383.383,0,1,1-.384.384A.384.384,0,0,1,199.3,799.7Z" transform="translate(-1.021 -0.365)"/><path class="a" d="M210.819,801.8a1.724,1.724,0,1,0-1.723-1.723A1.725,1.725,0,0,0,210.819,801.8Zm0-2.107a.383.383,0,1,1-.383.384A.384.384,0,0,1,210.819,799.7Z" transform="translate(-1.119 -0.365)"/><path class="a" d="M271.9,818.318h-7.076v-53.3a.664.664,0,0,0-.664-.664h-2.03a.662.662,0,0,0-.74,0h-6.923a.664.664,0,0,0-.741,0h-7.077a.664.664,0,0,0-.741,0H186.982a.664.664,0,0,0-.664.664v25.961h-3.4a8.3,8.3,0,0,0-8.292,8.282v1.065a4.193,4.193,0,0,0-3.033-1.3h-.267a4.21,4.21,0,0,0-4.208,4.2v15.087h-2.155V816.73a1.551,1.551,0,0,0-1.55-1.548H156.53V788.532h7.386a.664.664,0,0,0,.639-.846l-4.43-15.539a.664.664,0,0,0-.639-.481h-7.165a.664.664,0,0,0-.639.481l-4.43,15.539a.664.664,0,0,0,.639.846H155.2v26.651h-6.578a1.551,1.551,0,0,0-1.551,1.548v1.588h-2.5c1.714-2.449,4.813-8.578-1.025-15.161a.655.655,0,0,0-.445-.218,7.917,7.917,0,0,0,.639-5.081,7.06,7.06,0,0,0-.273-.937c-.223-.636-.335-.956.395-2.777,1.174-2.933-.407-6.549-.474-6.7a.664.664,0,0,0-.562-.392.671.671,0,0,0-.611.314,19.709,19.709,0,0,1-1.207,1.743c.077-2.217-.943-5.517-1.793-6.134a.806.806,0,0,0-.833-.092,1.2,1.2,0,0,0-.523,1.1,18.425,18.425,0,0,1-1.725,5.315,3.29,3.29,0,0,1-.82-1.8.664.664,0,0,0-1.2-.325,8.7,8.7,0,0,0-1.519,4.562,4.194,4.194,0,0,0,.668,2.2c.447.8.744,1.329-.2,3.048a6.549,6.549,0,0,0,.189,6.515,11.513,11.513,0,0,0-.742,14.822h-6.866V764.7a.664.664,0,0,0-.664-.664H86.238a.664.664,0,0,0-.664.664v53.617H78.226a.664.664,0,1,0,0,1.327H271.9a.664.664,0,1,0,0-1.327ZM159.1,787.05h-6.24l1.214-13.981h3.813Zm3.934.155h-2.586l-1.133-13.05Zm-10.321-13.83-1.2,13.83h-2.742Zm110.779,44.943h-6.257V765.683h3.858v49.862a.664.664,0,0,0,1.329,0V765.683h1.071Zm-23.377-15.5h-9.993a4.212,4.212,0,0,0-4.188-3.792h-.267a4.191,4.191,0,0,0-3.111,1.384v-1.15a8.3,8.3,0,0,0-8.292-8.282h-3.686v-25.3h29.536Zm-18.655,7.455H175.8v-2.418h45.657ZM175.8,811.6h45.657v6.715H175.8Zm46.986-8.372a2.88,2.88,0,0,1,2.879-2.875h.267a2.881,2.881,0,0,1,2.88,2.875v15.087h-6.025Zm7.354.917h9.972v14.17h-9.972Zm11.3-38.465h4.167v49.862a.664.664,0,0,0,1.329,0V765.683h1.148v52.635h-6.644Zm7.973,0h4.012v49.862a.664.664,0,0,0,1.329,0V765.683h1.148v52.635h-6.489Zm-61.771,0h3.7v23.709a.664.664,0,0,0,1.329,0V765.683h1.246v23.709a.664.664,0,0,0,1.329,0V765.683h3.76v23.709a.664.664,0,0,0,1.329,0V765.683h1.246v23.709a.664.664,0,0,0,1.329,0V765.683h3.76v23.709a.664.664,0,0,0,1.329,0V765.683h1.245v25.3h-21.6Zm-11.689,36.986v-3.406a6.967,6.967,0,0,1,6.963-6.955h31.344a6.967,6.967,0,0,1,6.963,6.955v3.406a.658.658,0,0,0,.235.5c0,.02,0,.04,0,.059v3.3H175.8v-3.3c0-.045,0-.088-.007-.133A.653.653,0,0,0,175.958,802.669Zm-7.508.563a2.88,2.88,0,0,1,2.879-2.875h.267a2.88,2.88,0,0,1,2.879,2.875v15.087H168.45ZM148.4,816.73a.225.225,0,0,1,.222-.221h14.793a.224.224,0,0,1,.221.221v1.588H148.4Zm-5.8-27.516a7.291,7.291,0,0,1,.034,4.437c-.873,2.178-.734,2.8-.416,3.709a5.7,5.7,0,0,1,.227.771c.307,1.456.073,3.617-.765,4.513a.647.647,0,0,0-.148.288H139.9c1.926-2.523.867-6.5.432-8.124a6.417,6.417,0,0,1,.392-3.707C141.1,790.988,141.666,790.55,142.6,789.214Zm-3.588-3.94a10.144,10.144,0,0,1,.639,4.2,2.992,2.992,0,0,0-.024.782,8.008,8.008,0,0,0-.579,4.892c.68,2.547,1.319,6.119-.976,7.71a.738.738,0,0,0-.083.071h-.756c-.154-.28-.664-1.49.148-4.041,1-3.152.02-7.489-.255-8.57A27.554,27.554,0,0,0,139.009,785.274Zm-4.778,12.344c1.2-2.19.818-3.218.194-4.334a2.9,2.9,0,0,1-.5-1.552,6.425,6.425,0,0,1,.561-2.479,3.361,3.361,0,0,0,1.365,1.464c.267,1.083,1.13,5.04.261,7.773a7.5,7.5,0,0,0-.31,4.443h-1.336A5.267,5.267,0,0,1,134.232,797.618Zm.107,6.642h8.411a10.284,10.284,0,0,1,.163,14.058h-8.737C133.144,817.139,128.481,811.109,134.339,804.26Zm-10.02,14.058h-2.506V765.364h2.506Zm-11.446-3.434-2.7-9.613v-.6l2.128-.6,2.889,10.294-1.852.519Zm-11.035,0h-7v-3.3h7Zm.664-4.623H94.172a.664.664,0,0,0-.664.664v3.96H90.737v-14.39h14.011v14.3a.664.664,0,0,0,.009.089h-1.59v-3.96A.664.664,0,0,0,102.5,810.261Zm14.542-11.093h-7v-3.691h7Zm.664-5.018h-8.331a.664.664,0,0,0-.664.664v4.355h-2.638v-14.39h14.408v14.39h-2.11v-4.355A.663.663,0,0,0,117.71,794.149Zm-16.268,5.018h-7V789.005h7Zm.664-11.49H93.775a.664.664,0,0,0-.664.664v10.826H90.737v-14.39h14.011v14.39h-1.977V788.341A.664.664,0,0,0,102.106,787.678ZM90.737,773.157h6.87v10.294h-6.87Zm29.747,10.294H106.077V769.062h14.408Zm-15.736,0H98.936V772.493a.664.664,0,0,0-.664-.664H90.737v-2.767h14.011Zm3.812,20.979.288,1.024v9.431h-2.374V804.193h2.067A.665.665,0,0,0,108.56,804.429Zm1.616,5.76,1.317,4.695h-1.317Zm6.475,4.457-3.247-11.572a.664.664,0,0,0-.819-.461l-2.453.686a.662.662,0,0,0-.621-.435h-3.435v-2.371h14.408v14.39h-3.813A.668.668,0,0,0,116.652,814.646Zm3.833-46.911H90.737v-2.371h29.747ZM90.737,816.211h21.176a.649.649,0,0,0,.208.19.663.663,0,0,0,.326.085.684.684,0,0,0,.178-.024l.9-.252h6.96v2.107H90.737ZM86.9,765.364h2.506v52.954H86.9Z"/><path class="a" d="M142.041,776.825h3.6a.67.67,0,0,0,0-1.34h-3.6a.67.67,0,0,0,0,1.34Z" transform="translate(-0.547 -0.144)"/><path class="a" d="M142.228,768.563l4.419,2.788a.67.67,0,1,0,.714-1.133l-4.418-2.788a.67.67,0,1,0-.715,1.133Z" transform="translate(-0.554)"/><path class="a" d="M150.942,767.225a.67.67,0,1,0,1.1-.767L150,763.534a.67.67,0,1,0-1.1.767Z" transform="translate(-0.605)"/><path class="a" d="M167.808,775.485a.67.67,0,0,0,0,1.34h3.6a.67.67,0,0,0,0-1.34Z" transform="translate(-0.768 -0.144)"/><path class="a" d="M166.449,771.455a.669.669,0,0,0,.357-.1l4.419-2.788a.67.67,0,1,0-.715-1.133l-4.419,2.788a.67.67,0,0,0,.358,1.237Z" transform="translate(-0.759)"/><path class="a" d="M161.578,767.391a.672.672,0,0,0,.933-.166l2.039-2.924a.67.67,0,1,0-1.1-.767l-2.039,2.924A.67.67,0,0,0,161.578,767.391Z" transform="translate(-0.712)"/><path class="a" d="M156.726,765.744a.67.67,0,0,0,.67-.67v-4.759a.67.67,0,0,0-1.34,0v4.759A.67.67,0,0,0,156.726,765.744Z" transform="translate(-0.66)"/></g></svg>