<svg xmlns="http://www.w3.org/2000/svg" width="195" height="60" viewBox="0 0 195 60"><defs><style>.a{fill:#d2d2d1;}</style></defs><g transform="translate(-1795.259 -2902.113)"><g transform="translate(1795.259 2940.999)"><path class="a" d="M1813.2,2987.169a.663.663,0,0,0,.691-.634c0-.019,0-.037,0-.055v-18.994a.664.664,0,0,0-1.328-.054q0,.027,0,.054v18.994A.663.663,0,0,0,1813.2,2987.169Z" transform="translate(-1802.893 -2966.796)"/><path class="a" d="M1869.131,2986.94a.682.682,0,0,0-.59-.744h-58.157a.661.661,0,0,0-.64.686.68.68,0,0,0,.59.743.346.346,0,0,0,.05,0h58.107A.661.661,0,0,0,1869.131,2986.94Z" transform="translate(-1801.65 -2974.533)"/><path class="a" d="M1869.131,2975.722a.682.682,0,0,0-.59-.744h-58.157a.661.661,0,0,0-.64.686.681.681,0,0,0,.59.743h58.157A.661.661,0,0,0,1869.131,2975.722Z" transform="translate(-1801.65 -2970.059)"/><path class="a" d="M1830.17,2987.169a.664.664,0,0,0,.691-.634c0-.019,0-.037,0-.055v-18.994a.664.664,0,0,0-1.328-.054.446.446,0,0,0,0,.054v18.994A.663.663,0,0,0,1830.17,2987.169Z" transform="translate(-1810.382 -2966.796)"/><path class="a" d="M1847.142,2987.169a.664.664,0,0,0,.691-.634c0-.019,0-.037,0-.055v-18.994a.664.664,0,0,0-1.328-.054.446.446,0,0,0,0,.054v18.994A.663.663,0,0,0,1847.142,2987.169Z" transform="translate(-1817.87 -2966.796)"/><path class="a" d="M1864.114,2987.169a.664.664,0,0,0,.691-.634c0-.019,0-.037,0-.055v-18.994a.664.664,0,0,0-1.328-.054q0,.027,0,.054v18.994A.663.663,0,0,0,1864.114,2987.169Z" transform="translate(-1825.359 -2966.796)"/><path class="a" d="M1881.086,2987.169a.663.663,0,0,0,.691-.634c0-.019,0-.037,0-.055v-18.994a.664.664,0,0,0-1.328-.054q0,.027,0,.054v18.994A.663.663,0,0,0,1881.086,2987.169Z" transform="translate(-1832.848 -2966.796)"/><path class="a" d="M1898.059,2987.169a.664.664,0,0,0,.691-.634c0-.019,0-.037,0-.055v-18.994a.664.664,0,0,0-1.328-.054.4.4,0,0,0,0,.054v18.994A.663.663,0,0,0,1898.059,2987.169Z" transform="translate(-1840.337 -2966.796)"/><path class="a" d="M1914.9,2987.169a.664.664,0,0,0,.691-.634c0-.019,0-.037,0-.055v-18.994a.664.664,0,0,0-1.328-.054.4.4,0,0,0,0,.054v18.994A.663.663,0,0,0,1914.9,2987.169Z" transform="translate(-1847.769 -2966.796)"/><path class="a" d="M2001.9,2987.169a.664.664,0,0,0,.691-.634c0-.019,0-.037,0-.055v-18.994a.664.664,0,0,0-1.327-.054.4.4,0,0,0,0,.054v18.994A.663.663,0,0,0,2001.9,2987.169Z" transform="translate(-1886.153 -2966.796)"/><path class="a" d="M2031.5,2986.94a.681.681,0,0,0-.59-.744h-31.831a.661.661,0,0,0-.64.686.68.68,0,0,0,.59.743.346.346,0,0,0,.05,0h31.781A.661.661,0,0,0,2031.5,2986.94Z" transform="translate(-1884.911 -2974.533)"/><path class="a" d="M2031.5,2975.722a.681.681,0,0,0-.59-.744h-31.831a.661.661,0,0,0-.64.686.68.68,0,0,0,.59.743h31.831A.661.661,0,0,0,2031.5,2975.722Z" transform="translate(-1884.911 -2970.059)"/><path class="a" d="M2018.868,2987.169a.664.664,0,0,0,.691-.634c0-.019,0-.037,0-.055v-18.994a.664.664,0,0,0-1.328-.054q0,.027,0,.054v18.994A.663.663,0,0,0,2018.868,2987.169Z" transform="translate(-1893.642 -2966.796)"/><path class="a" d="M2035.841,2987.169a.663.663,0,0,0,.691-.634.409.409,0,0,0,0-.055v-18.994a.664.664,0,0,0-1.328-.054q0,.027,0,.054v18.994A.664.664,0,0,0,2035.841,2987.169Z" transform="translate(-1901.131 -2966.796)"/><path class="a" d="M2052.813,2987.169a.664.664,0,0,0,.691-.634c0-.019,0-.037,0-.055v-18.994a.664.664,0,0,0-1.328-.054.5.5,0,0,0,0,.054v18.994A.663.663,0,0,0,2052.813,2987.169Z" transform="translate(-1908.62 -2966.796)"/><path class="a" d="M1795.92,2999.454a.745.745,0,0,0,0,1.48H1989.4a.745.745,0,0,0,0-1.48Z" transform="translate(-1795.259 -2979.821)"/></g><g transform="translate(1865.494 2902.113)"><path class="a" d="M1963.005,2949.742c-.016.353-.041.652-.041.951,0,3.009,0,6.016-.006,9.024,0,.872-.2,1.03-1.137.85-.266-3.543-.015-7.143-.153-10.778a4.089,4.089,0,0,0-.568-.124c-5.66-.4-10.827-4.819-12.47-10.716a16.074,16.074,0,0,1,2.925-14.915c1.394-1.783,1.365-2.735.521-4.476a12.768,12.768,0,0,1,3.3-14.884,10.791,10.791,0,0,1,7.2-2.559,9.508,9.508,0,0,1,5.207,1.532,12.277,12.277,0,0,1,5.7,12.864,13.449,13.449,0,0,1-1.013,3.233,3.651,3.651,0,0,0,.575,4.263,15.683,15.683,0,0,1,3.23,13.855,14.682,14.682,0,0,1-9.615,11.152,18.84,18.84,0,0,1-2.911.632C1963.521,2949.693,1963.29,2949.706,1963.005,2949.742Zm.006-1.164a31.633,31.633,0,0,0,3.75-.968,13.374,13.374,0,0,0,7.565-7.474,14.948,14.948,0,0,0-2.453-15.663,4.559,4.559,0,0,1-.6-4.977,11.719,11.719,0,0,0,.206-9.933,10.973,10.973,0,0,0-4.06-4.777,7.418,7.418,0,0,0-3.227-1.2,10.8,10.8,0,0,0-4.649.245c-6.14,1.883-9.186,9.242-6.276,15.385a5.155,5.155,0,0,1-.788,5.657,15.021,15.021,0,0,0-1.675,16.274,13.626,13.626,0,0,0,8.7,7.013,14.689,14.689,0,0,0,2.143.273v-6.75c-1.55-1.671-3.091-3.324-4.622-4.988-.293-.319-.708-.694-.26-1.156.4-.41.767-.125,1.1.236.977,1.071,1.967,2.128,2.958,3.186.241.256.5.493.883.869v-1.1q0-6.118,0-12.236c0-.554.007-1.1.9-1.207a4.263,4.263,0,0,1,.336,1.137c.034,2.268.017,4.538.017,6.807v.966c.268-.223.4-.311.509-.427,1.124-1.2,2.229-2.414,3.379-3.58a1.2,1.2,0,0,1,.877-.259c.146.01.269.375.443.641l-5.16,5.318Z" transform="translate(-1932.86 -2902.113)"/><path class="a" d="M2075.346,2949.742c-.016.353-.04.652-.041.951,0,3.009,0,6.016-.006,9.024,0,.872-.2,1.03-1.138.85-.266-3.543-.015-7.143-.153-10.778a4.088,4.088,0,0,0-.568-.124c-5.66-.4-10.827-4.819-12.47-10.716a16.075,16.075,0,0,1,2.925-14.915c1.394-1.783,1.366-2.735.521-4.476a12.768,12.768,0,0,1,3.3-14.884,10.79,10.79,0,0,1,7.2-2.559,9.508,9.508,0,0,1,5.207,1.532,12.276,12.276,0,0,1,5.7,12.864,13.455,13.455,0,0,1-1.013,3.233,3.652,3.652,0,0,0,.575,4.263,15.682,15.682,0,0,1,3.23,13.855,14.683,14.683,0,0,1-9.615,11.152,18.809,18.809,0,0,1-2.911.632C2075.862,2949.693,2075.63,2949.706,2075.346,2949.742Zm.006-1.164a31.631,31.631,0,0,0,3.75-.968,13.373,13.373,0,0,0,7.565-7.474,14.944,14.944,0,0,0-2.454-15.663,4.562,4.562,0,0,1-.6-4.977,11.717,11.717,0,0,0,.206-9.933,10.974,10.974,0,0,0-4.059-4.777,7.424,7.424,0,0,0-3.227-1.2,10.806,10.806,0,0,0-4.649.245c-6.14,1.883-9.186,9.242-6.275,15.385a5.154,5.154,0,0,1-.789,5.657,15.022,15.022,0,0,0-1.675,16.274,13.627,13.627,0,0,0,8.7,7.013,14.693,14.693,0,0,0,2.144.273v-6.75c-1.55-1.671-3.092-3.324-4.622-4.988-.293-.319-.708-.694-.26-1.156.4-.41.766-.125,1.1.236.977,1.071,1.967,2.128,2.957,3.186.241.256.5.493.884.869v-1.1q0-6.118,0-12.236c0-.554.007-1.1.9-1.207a4.268,4.268,0,0,1,.337,1.137c.033,2.268.017,4.538.017,6.807v.966c.268-.223.4-.311.51-.427,1.124-1.2,2.229-2.414,3.379-3.58a1.2,1.2,0,0,1,.877-.259c.146.01.269.375.442.641l-5.159,5.318Z" transform="translate(-1982.429 -2902.113)"/><path class="a" d="M2107.454,2921.841a6.842,6.842,0,0,1,.661-.872c5.2-5.064,13.511-2.829,15.884,4.3a10.756,10.756,0,0,1-.479,8.148,2.981,2.981,0,0,0,.448,3.556,13.84,13.84,0,0,1,2.95,11.277,12.951,12.951,0,0,1-9.313,10.56c-.712.171-1.441.26-2.292.41v9.263l-.956.059a22.063,22.063,0,0,1-.184-4.657c-.045-1.52-.01-3.042-.01-4.648a12.34,12.34,0,0,1-7.421-3.228c-.453-.427-.851-.921-1.3-1.413l.492-.841a3.9,3.9,0,0,1,.755.488,11.422,11.422,0,0,0,4.527,3.046c.87.3,1.784.441,2.8.685.046-.467.113-.8.109-1.14-.033-2.623-.109-5.246-.112-7.869,0-2.113.071-4.226.127-6.339a6.3,6.3,0,0,1,.17-.939l.845-.092c.371,1.917.084,3.819.238,5.847.746-.775,1.367-1.459,2.032-2.089a.98.98,0,0,1,.747-.244c.173.03.3.354.486.591-1,1.1-1.939,2.1-2.831,3.146a1.857,1.857,0,0,0-.468,1.05c-.041,2.471-.025,4.943-.02,7.416a5.137,5.137,0,0,0,.119.686,19.787,19.787,0,0,0,2.695-.618,11.506,11.506,0,0,0,7.553-8.946,12.349,12.349,0,0,0-2.555-10.607,4.059,4.059,0,0,1-.668-4.953,9.5,9.5,0,0,0-4.834-12.885c-3.266-1.272-6.237-.445-8.823,2.017C2108.13,2922.67,2107.944,2922.674,2107.454,2921.841Z" transform="translate(-2002.358 -2908.537)"/><path class="a" d="M1929.733,2968.563c0-1.848-.014-3.627.01-5.406a10.853,10.853,0,0,1,.211-1.424l.969.152v6.609a3.179,3.179,0,0,0,2.535-.423,8.487,8.487,0,0,0,4.642-5.347,4.028,4.028,0,0,1,.563-.858l.629.47c.144,3.142-3.64,6.673-8.389,7.8v6.744l-.949.067a6.338,6.338,0,0,1-.209-1.095c-.022-1.6-.008-3.211-.012-4.816,0-.3-.03-.6-.036-.72a32.215,32.215,0,0,1-3.9-1.634,10.347,10.347,0,0,1-4.259-12.2,11.481,11.481,0,0,1,1.639-2.892,2.55,2.55,0,0,0,.471-2.939,8.175,8.175,0,0,1,3.935-10.771,7.016,7.016,0,0,1,8.28,2.111,7.3,7.3,0,0,1,.407.686l-.58.737a6.532,6.532,0,0,1-.782-.66c-3.077-3.576-8.515-2.573-10.353,2.071a6.494,6.494,0,0,0,.141,5.248,3.826,3.826,0,0,1-.5,4.363,8.743,8.743,0,0,0-1.685,3.2c-.695,3.779-.07,7.02,3.342,9.615a6.563,6.563,0,0,0,3.337,1.375A3.1,3.1,0,0,0,1929.733,2968.563Z" transform="translate(-1920.956 -2916.944)"/></g></g></svg>